<?xml version="1.0" encoding="UTF-8"?>
<svg width="177px" height="84px" viewBox="0 0 177 84" version="1.1" xmlns="http://www.w3.org/2000/svg" xmlns:xlink="http://www.w3.org/1999/xlink">
    <title>LIU</title>
    <g id="页面-1" stroke="none" stroke-width="1" fill="none" fill-rule="evenodd">
        <g id="桌面端-HD" transform="translate(-487.000000, -567.000000)" fill="#000000" fill-rule="nonzero" stroke="#FDF253" stroke-width="2">
            <path d="M536,648 L536,627.010495 L514.246305,627.010495 L514.246305,568 L488,568 L488,648 L536,648 Z M529,639 L499,639 L499,578 L502.12,578 L502.12,636.112426 L529,636.112426 L529,639 Z M578,648 L578,568 L551,568 L551,648 L578,648 Z M566.047,639 L562.953,639 L562.953,578 L566.047,578 L566.047,639 Z M629.940325,650 C634.952984,650 639.488246,649.360624 643.546112,648.081871 C647.603978,646.803119 651.084991,644.88499 653.98915,642.327485 C656.893309,639.769981 659.121157,636.533138 660.672694,632.616959 C662.224231,628.70078 663,624.105263 663,618.830409 L663,618.830409 L663,568 L637.459313,568 L637.459313,617.751462 C637.459313,620.548733 636.882459,622.686647 635.728752,624.165205 C634.575045,625.643762 632.64557,626.383041 629.940325,626.383041 C627.235081,626.383041 625.305606,625.643762 624.151899,624.165205 C622.998192,622.686647 622.421338,620.548733 622.421338,617.751462 L622.421338,617.751462 L622.421338,568 L597,568 L597,618.830409 C597,624.105263 597.775769,628.70078 599.327306,632.616959 C600.878843,636.533138 603.086799,639.769981 605.951175,642.327485 C608.815552,644.88499 612.276673,646.803119 616.334539,648.081871 C620.392405,649.360624 624.927667,650 629.940325,650 Z M629.94051,639 C623.1983,639 618.022663,637.225817 614.413598,633.677451 C610.804533,630.129085 609,625.005882 609,618.307843 L609,618.307843 L609,578 L612.093484,578 L612.093484,618.307843 C612.093484,630.029412 618.042493,635.890196 629.94051,635.890196 C641.838527,635.890196 647.787535,630.029412 647.787535,618.307843 L647.787535,618.307843 L647.787535,578 L651,578 L651,618.307843 C651,625.005882 649.175637,630.129085 645.526912,633.677451 C641.878187,637.225817 636.68272,639 629.94051,639 Z" id="LIU"></path>
        </g>
    </g>
</svg>