<?xml version="1.0" encoding="UTF-8"?>
<svg width="366px" height="84px" viewBox="0 0 366 84" version="1.1" xmlns="http://www.w3.org/2000/svg" xmlns:xlink="http://www.w3.org/1999/xlink">
    <title>桌面端 HD</title>
    <g id="页面-1" stroke="none" stroke-width="1" fill="none" fill-rule="evenodd">
        <g id="桌面端-HD" transform="translate(-406.000000, -492.000000)" fill="#000000" fill-rule="nonzero" stroke="#FDF253" stroke-width="2">
            <path d="M546,573 L546,552.010495 L524.246305,552.010495 L524.246305,493 L498,493 L498,573 L546,573 Z M539,564 L509,564 L509,503 L512.12,503 L512.12,561.112426 L539,561.112426 L539,564 Z M588,573 L588,493 L561,493 L561,573 L588,573 Z M576.047,564 L572.953,564 L572.953,503 L576.047,503 L576.047,564 Z M639.940325,575 C644.952984,575 649.488246,574.360624 653.546112,573.081871 C657.603978,571.803119 661.084991,569.88499 663.98915,567.327485 C666.893309,564.769981 669.121157,561.533138 670.672694,557.616959 C672.224231,553.70078 673,549.105263 673,543.830409 L673,543.830409 L673,493 L647.459313,493 L647.459313,542.751462 C647.459313,545.548733 646.882459,547.686647 645.728752,549.165205 C644.575045,550.643762 642.64557,551.383041 639.940325,551.383041 C637.235081,551.383041 635.305606,550.643762 634.151899,549.165205 C632.998192,547.686647 632.421338,545.548733 632.421338,542.751462 L632.421338,542.751462 L632.421338,493 L607,493 L607,543.830409 C607,549.105263 607.775769,553.70078 609.327306,557.616959 C610.878843,561.533138 613.086799,564.769981 615.951175,567.327485 C618.815552,569.88499 622.276673,571.803119 626.334539,573.081871 C630.392405,574.360624 634.927667,575 639.940325,575 Z M639.94051,564 C633.1983,564 628.022663,562.225817 624.413598,558.677451 C620.804533,555.129085 619,550.005882 619,543.307843 L619,543.307843 L619,503 L622.093484,503 L622.093484,543.307843 C622.093484,555.029412 628.042493,560.890196 639.94051,560.890196 C651.838527,560.890196 657.787535,555.029412 657.787535,543.307843 L657.787535,543.307843 L657.787535,503 L661,503 L661,543.307843 C661,550.005882 659.175637,555.129085 655.526912,558.677451 C651.878187,562.225817 646.68272,564 639.94051,564 Z" id="LIU"></path>
        </g>
    </g>
</svg>