<?xml version="1.0" encoding="UTF-8"?>
<svg width="368px" height="78px" viewBox="0 0 368 78" version="1.1" xmlns="http://www.w3.org/2000/svg" xmlns:xlink="http://www.w3.org/1999/xlink">
    <title>YUHAN</title>
    <g id="页面-1" stroke="none" stroke-width="1" fill="none" fill-rule="evenodd">
        <g id="桌面端-HD" transform="translate(-398.000000, -511.000000)" fill="#000000" fill-rule="nonzero" stroke="#FDF253" stroke-width="2">
            <path d="M433.026563,588 L433.026563,554.195833 C444.342188,552.902778 450,547.281944 450,537.333333 L450,537.333333 L450,512 L433.026563,512 L433.026563,537.333333 C433.026563,539.629167 432.183203,541.614931 430.496484,543.290625 C428.809766,544.966319 426.810937,545.804167 424.5,545.804167 C422.1625,545.804167 420.157031,544.966319 418.483594,543.290625 C416.810156,541.614931 415.973437,539.629167 415.973437,537.333333 L415.973437,537.333333 L415.973437,512 L399,512 L399,537.333333 C399,547.281944 404.657812,552.902778 415.973437,554.195833 L415.973437,554.195833 L415.973437,588 L433.026563,588 Z M510.026562,588 C514.675,588 518.666016,586.330903 521.999609,582.992708 C525.333203,579.654514 527,575.702778 527,571.1375 L527,571.1375 L527,512 L510.026562,512 L510.026562,571.1375 C510.026562,573.406944 509.196484,575.372917 507.536328,577.035417 C505.876172,578.697917 503.864062,579.529167 501.5,579.529167 C499.135937,579.529167 497.123828,578.697917 495.463672,577.035417 C493.803516,575.372917 492.973437,573.406944 492.973437,571.1375 L492.973437,571.1375 L492.973437,512 L476,512 L476,571.1375 C476,575.755556 477.666797,579.720486 481.000391,583.032292 C484.333984,586.344097 488.325,588 492.973437,588 L492.973437,588 L510.026562,588 Z M568.973438,588 L568.973438,554.195833 L586.026563,554.195833 L586.026563,588 L603,588 L603,512 L586.026563,512 L586.026563,545.804167 L568.973438,545.804167 L568.973438,512 L552,512 L552,588 L568.973438,588 Z M645.973437,588 L645.973437,554.195833 L663.026563,554.195833 L663.026563,588 L680,588 L680,528.8625 C680,524.270833 678.333203,520.3125 674.999609,516.9875 C671.666016,513.6625 667.675,512 663.026563,512 L663.026563,512 L645.973437,512 C641.325,512 637.333984,513.655903 634.000391,516.967708 C630.666797,520.279514 629,524.244444 629,528.8625 L629,528.8625 L629,588 L645.973437,588 Z M662,546 L645,546 L645,529.28125 C645,527.015625 645.834112,525.06901 647.502336,523.441406 C649.170561,521.813802 651.169782,521 653.5,521 C655.803738,521 657.79634,521.813802 659.477804,523.441406 C661.159268,525.06901 662,527.015625 662,529.28125 L662,529.28125 L662,546 Z M714.451138,588 L714.451138,545.804167 L761.129853,588 L765,588 L765,512 L756.548862,512 L756.548862,554.195833 L709.830656,512 L706,512 L706,588 L714.451138,588 Z" id="YUHAN"></path>
        </g>
    </g>
</svg>